<svg aria-hidden="true" style="position: absolute; width: 0; height: 0; overflow: hidden;" version="1.1" xmlns="http://www.w3.org/2000/svg" xmlns:xlink="http://www.w3.org/1999/xlink">
<defs>
<symbol id="icon-medal" viewBox="0 0 20 20">
<title>medal</title>
<path d="M10 10c0.528 0 1.026 0.104 1.504 0.256l-6.077-9.115c-0.059-0.088-0.157-0.141-0.263-0.141h-3.556c-0.117 0-0.188 0.131-0.122 0.229l6.231 9.347c0.687-0.356 1.456-0.576 2.283-0.576zM18.392 1h-3.556c-0.106 0-0.204 0.053-0.263 0.141l-3.823 5.734 2 3 5.764-8.646c0.065-0.098-0.005-0.229-0.122-0.229zM10 11c-2.209 0-4 1.791-4 4s1.791 4 4 4 4-1.791 4-4c0-2.209-1.791-4-4-4zM12.112 15.117c0.062 0.064 0.052 0.158-0.022 0.208s-0.095 0.153-0.049 0.229c0.047 0.076 0.018 0.165-0.065 0.199s-0.125 0.13-0.095 0.214-0.017 0.165-0.104 0.181-0.149 0.101-0.137 0.189-0.051 0.158-0.14 0.155c-0.089-0.003-0.167 0.068-0.174 0.156s-0.083 0.144-0.169 0.123-0.178 0.031-0.203 0.117-0.111 0.124-0.191 0.085c-0.080-0.039-0.18-0.006-0.222 0.072s-0.134 0.098-0.205 0.043-0.175-0.044-0.232 0.024-0.151 0.068-0.209 0-0.162-0.079-0.232-0.024-0.162 0.035-0.205-0.043-0.142-0.111-0.222-0.072c-0.080 0.039-0.166 0-0.191-0.085s-0.116-0.138-0.203-0.117-0.163-0.034-0.169-0.123-0.084-0.159-0.173-0.157c-0.089 0.003-0.152-0.067-0.14-0.155s-0.050-0.173-0.137-0.189-0.135-0.097-0.104-0.181-0.013-0.18-0.095-0.214-0.111-0.123-0.065-0.199c0.047-0.076 0.025-0.179-0.049-0.229s-0.083-0.144-0.022-0.208c0.062-0.064 0.062-0.169 0-0.234s-0.052-0.158 0.022-0.208 0.095-0.153 0.049-0.229c-0.047-0.076-0.018-0.165 0.065-0.199s0.125-0.13 0.095-0.214 0.017-0.165 0.104-0.181 0.149-0.101 0.137-0.189 0.051-0.158 0.14-0.155c0.089 0.003 0.167-0.068 0.174-0.156s0.083-0.144 0.169-0.123 0.178-0.031 0.203-0.117 0.111-0.124 0.191-0.085c0.080 0.039 0.18 0.006 0.222-0.072s0.134-0.098 0.205-0.043 0.175 0.044 0.232-0.024 0.151-0.068 0.209 0 0.162 0.079 0.232 0.024 0.162-0.035 0.205 0.043 0.142 0.111 0.222 0.072c0.080-0.039 0.166 0 0.191 0.085s0.116 0.138 0.203 0.117 0.163 0.034 0.169 0.123 0.085 0.159 0.174 0.156c0.089-0.003 0.152 0.067 0.14 0.155s0.050 0.173 0.137 0.189 0.135 0.097 0.104 0.181 0.013 0.18 0.095 0.214 0.111 0.123 0.065 0.199c-0.047 0.076-0.025 0.179 0.049 0.229s0.083 0.144 0.022 0.208-0.063 0.171-0.001 0.235z"></path>
</symbol>
<symbol id="icon-images" viewBox="0 0 36 32">
<title>images</title>
<path d="M34 4h-2v-2c0-1.1-0.9-2-2-2h-28c-1.1 0-2 0.9-2 2v24c0 1.1 0.9 2 2 2h2v2c0 1.1 0.9 2 2 2h28c1.1 0 2-0.9 2-2v-24c0-1.1-0.9-2-2-2zM4 6v20h-1.996c-0.001-0.001-0.003-0.002-0.004-0.004v-23.993c0.001-0.001 0.002-0.003 0.004-0.004h27.993c0.001 0.001 0.003 0.002 0.004 0.004v1.996h-24c-1.1 0-2 0.9-2 2v0zM34 29.996c-0.001 0.001-0.002 0.003-0.004 0.004h-27.993c-0.001-0.001-0.003-0.002-0.004-0.004v-23.993c0.001-0.001 0.002-0.003 0.004-0.004h27.993c0.001 0.001 0.003 0.002 0.004 0.004v23.993z"></path>
<path d="M30 11c0 1.657-1.343 3-3 3s-3-1.343-3-3 1.343-3 3-3 3 1.343 3 3z"></path>
<path d="M32 28h-24v-4l7-12 8 10h2l7-6z"></path>
</symbol>
<symbol id="icon-camera" viewBox="0 0 32 32">
<title>camera</title>
<path d="M9.5 19c0 3.59 2.91 6.5 6.5 6.5s6.5-2.91 6.5-6.5-2.91-6.5-6.5-6.5-6.5 2.91-6.5 6.5zM30 8h-7c-0.5-2-1-4-3-4h-8c-2 0-2.5 2-3 4h-7c-1.1 0-2 0.9-2 2v18c0 1.1 0.9 2 2 2h28c1.1 0 2-0.9 2-2v-18c0-1.1-0.9-2-2-2zM16 27.875c-4.902 0-8.875-3.973-8.875-8.875s3.973-8.875 8.875-8.875c4.902 0 8.875 3.973 8.875 8.875s-3.973 8.875-8.875 8.875zM30 14h-4v-2h4v2z"></path>
</symbol>
<symbol id="icon-film" viewBox="0 0 32 32">
<title>film</title>
<path d="M0 4v24h32v-24h-32zM6 26h-4v-4h4v4zM6 18h-4v-4h4v4zM6 10h-4v-4h4v4zM24 26h-16v-20h16v20zM30 26h-4v-4h4v4zM30 18h-4v-4h4v4zM30 10h-4v-4h4v4zM12 10v12l8-6z"></path>
</symbol>
<symbol id="icon-video-camera" viewBox="0 0 32 32">
<title>video-camera</title>
<path d="M12 9c0-2.761 2.239-5 5-5s5 2.239 5 5c0 2.761-2.239 5-5 5s-5-2.239-5-5zM0 9c0-2.761 2.239-5 5-5s5 2.239 5 5c0 2.761-2.239 5-5 5s-5-2.239-5-5zM24 19v-3c0-1.1-0.9-2-2-2h-20c-1.1 0-2 0.9-2 2v10c0 1.1 0.9 2 2 2h20c1.1 0 2-0.9 2-2v-3l8 5v-14l-8 5zM20 24h-16v-6h16v6z"></path>
</symbol>
<symbol id="icon-user-tie" viewBox="0 0 32 32">
<title>user-tie</title>
<path d="M10 6c0-3.314 2.686-6 6-6s6 2.686 6 6c0 3.314-2.686 6-6 6s-6-2.686-6-6zM24.002 14h-1.107l-6.222 12.633 2.327-11.633-3-3-3 3 2.327 11.633-6.222-12.633h-1.107c-3.998 0-3.998 2.687-3.998 6v10h24v-10c0-3.313 0-6-3.998-6z"></path>
</symbol>
<symbol id="icon-clipboard" viewBox="0 0 32 32">
<title>clipboard</title>
<path d="M29 4h-9c0-2.209-1.791-4-4-4s-4 1.791-4 4h-9c-0.552 0-1 0.448-1 1v26c0 0.552 0.448 1 1 1h26c0.552 0 1-0.448 1-1v-26c0-0.552-0.448-1-1-1zM16 2c1.105 0 2 0.895 2 2s-0.895 2-2 2c-1.105 0-2-0.895-2-2s0.895-2 2-2zM28 30h-24v-24h4v3c0 0.552 0.448 1 1 1h14c0.552 0 1-0.448 1-1v-3h4v24z"></path>
<path d="M14 26.828l-6.414-7.414 1.828-1.828 4.586 3.586 8.586-7.586 1.829 1.828z"></path>
</symbol>
</defs>
</svg>
